PathFileType	4	(X/Y/Z)	D:\Share\Shared_Data\Ergonomics\Sit To Stand Pertubation\S2\Unperturbed.trc
DataRate	CameraRate	NumFrames	NumMarkers	Units	OrigDataRate	OrigDataStartFrame	OrigNumFrames	
100	100	16	18	m	100	4671	241
Frame#	Time	R_Toe			R_ASIS			R_Pelvis			V_Sacral			L_Pelvis			L_ASIS			Clavical			R_Acromium			L_Acromium			Sternum			Torso			R_Thigh_Med			R_Thigh_Lat			R_Thigh			R_Shank_Med			R_Shank_Lat			R_Shank			R_Heel			
		X1	Y1	Z1	X2	Y2	Z2	X3	Y3	Z3	X4	Y4	Z4	X5	Y5	Z5	X6	Y6	Z6	X7	Y7	Z7	X8	Y8	Z8	X9	Y9	Z9	X10	Y10	Z10	X11	Y11	Z11	X12	Y12	Z12	X13	Y13	Z13	X14	Y14	Z14	X15	Y15	Z15	X16	Y16	Z16	X17	Y17	Z17	X18	Y18	Z18	

4671	46.7	0.4420231	0.064427071	0.15095279	0.45047314	1.0298862	0.14864096	0.37585358	1.0273376	0.19142859	0.23477725	1.0175011	0.028297935	0.33240338	1.0299337	-0.15146417	0.42810648	1.0416195	-0.12470997	0.40787537	1.4593036	0.01125098	0.30394299	1.4704011	0.21719687	0.28658575	1.4816919	-0.16810907	0.47340845	1.3071038	0.0032797098	0.41679895	1.4228881	-0.10606854	0.3581348	0.49429233	0.095290749	0.34840692	0.51867175	0.18385718	0.44925201	0.6781543	0.16123692	0.30834705	0.10615243	0.10861981	0.284397	0.10143952	0.19937483	0.31139688	0.37457465	0.21660226	0.20507924	0.061304798	0.15117471
4672	46.71	0.44201651	0.064429039	0.15095056	0.45018832	1.029942	0.14851305	0.37557376	1.0273579	0.19125041	0.23461496	1.0173197	0.028051342	0.33237317	1.0298369	-0.1516779	0.42811575	1.0417051	-0.12486903	0.40794479	1.4591482	0.010969989	0.30399512	1.4705836	0.21682806	0.28694562	1.48171	-0.16848064	0.4733457	1.3069188	0.0030883319	0.41690317	1.4226754	-0.10633249	0.35835754	0.49428235	0.095178886	0.34850598	0.51868317	0.1837354	0.44920285	0.67824432	0.16127727	0.30835043	0.10614125	0.10858444	0.2844054	0.10145275	0.19933569	0.3114837	0.37459839	0.21647646	0.20508539	0.061313358	0.15115784
4673	46.72	0.44200702	0.064432915	0.15094893	0.44988843	1.0299843	0.14840408	0.37526538	1.0273718	0.19107741	0.23445058	1.0171634	0.027772749	0.33237433	1.0297395	-0.15190396	0.42813104	1.0417605	-0.12501138	0.40804102	1.458985	0.010697981	0.30407144	1.470748	0.21646231	0.28731601	1.4816931	-0.16883133	0.47330713	1.3067159	0.0029085045	0.41702945	1.4224364	-0.10659435	0.35848743	0.49426672	0.095067535	0.34853726	0.51869086	0.18362308	0.44911072	0.67831799	0.16128876	0.30834961	0.10612872	0.10855424	0.28440564	0.10145977	0.19930229	0.3115162	0.37461597	0.21636737	0.20508847	0.061313129	0.15114143
4674	46.73	0.44199536	0.064438957	0.15094743	0.44957996	1.0300151	0.14831464	0.37493723	1.0273822	0.19091223	0.23428967	1.0170393	0.027462648	0.33241046	1.0296464	-0.15213872	0.42816544	1.041788	-0.12513484	0.40816409	1.4588186	0.010435502	0.30416357	1.4708969	0.21609711	0.287694	1.4816504	-0.1691602	0.47329321	1.306501	0.0027417753	0.41717987	1.4221807	-0.10685254	0.35853455	0.49424878	0.094960243	0.34850967	0.51869611	0.18352071	0.448987	0.6783764	0.16127402	0.30834525	0.10611595	0.10852949	0.28439948	0.10146204	0.19927536	0.31150235	0.37462756	0.21627441	0.20508867	0.061305656	0.15112589
4675	46.74	0.44198218	0.064447182	0.15094579	0.44926974	1.0300366	0.14824454	0.37459842	1.027392	0.19075627	0.23413722	1.0169519	0.027124166	0.33248328	1.0295599	-0.15237772	0.4282291	1.0417906	-0.12523834	0.40831454	1.4586527	0.010181928	0.30426587	1.4710336	0.21573248	0.28807812	1.4815897	-0.16946928	0.47330405	1.3062806	0.0025890043	0.41735657	1.4219188	-0.10710462	0.35850925	0.4942316	0.094860649	0.34843042	0.5187005	0.18342896	0.44884125	0.67842041	0.16123927	0.30833798	0.10610397	0.10851035	0.2843884	0.10146114	0.19925514	0.31144925	0.37463425	0.21619669	0.2050862	0.061293034	0.15111172
4676	46.75	0.44196814	0.064457314	0.15094389	0.44896399	1.0300496	0.14819296	0.37425671	1.0274019	0.19060948	0.2339973	1.0169039	0.026763796	0.33259232	1.0294811	-0.1526162	0.42832834	1.0417708	-0.12532172	0.40849158	1.458491	0.0099362202	0.30437445	1.4711627	0.21537022	0.28846768	1.481519	-0.16976436	0.47333899	1.3060614	0.0024501481	0.41756094	1.4216608	-0.10734819	0.35842123	0.4942175	0.094771873	0.34830594	0.51870526	0.18334843	0.44868002	0.67845062	0.16119328	0.30832834	0.10609351	0.10849679	0.2843735	0.10145839	0.19924124	0.31136298	0.37463754	0.21613336	0.20508115	0.061277401	0.1510994
4677	46.76	0.44195377	0.064468819	0.15094214	0.44866772	1.0300551	0.148159	0.37391821	1.0274124	0.19047142	0.2338726	1.0168953	0.026391945	0.33273514	1.0294086	-0.1528494	0.42846582	1.0417303	-0.12538511	0.4086926	1.4583358	0.0096977329	0.30448697	1.4712883	0.21501251	0.28886169	1.481443	-0.17005321	0.47339703	1.3058491	0.0023244445	0.41779318	1.4214133	-0.10758199	0.35827994	0.4942074	0.094695946	0.34814209	0.51871088	0.18327951	0.44850693	0.67846747	0.16114569	0.30831653	0.1060849	0.10848855	0.28435559	0.1014546	0.19923294	0.31124826	0.37463864	0.21608366	0.20507362	0.061260708	0.15108939
4678	46.77	0.44193954	0.064480904	0.15094118	0.44838425	1.030053	0.14814177	0.37358691	1.0274233	0.19034276	0.23376437	1.016924	0.026021908	0.33290759	1.0293416	-0.15307239	0.42864047	1.0416718	-0.12542875	0.40891364	1.4581897	0.0094664459	0.3046012	1.4714135	0.21466104	0.28925989	1.4813662	-0.17034323	0.47347693	1.3056476	0.0022105424	0.41805252	1.4211803	-0.10780611	0.35809494	0.49420093	0.094633827	0.34794467	0.51871722	0.18322261	0.44832193	0.67847192	0.16110521	0.30830276	0.106078	0.10848518	0.28433521	0.10144994	0.19922935	0.31110886	0.37463843	0.21604678	0.2050638	0.061244392	0.15108226
4679	46.78	0.44192542	0.064492798	0.15094177	0.4481153	1.0300431	0.14814044	0.37326526	1.0274355	0.19022508	0.23367226	1.0169854	0.025666794	0.33310284	1.0292788	-0.15328047	0.4288479	1.0415968	-0.12545303	0.40915088	1.4580544	0.0092428446	0.304715	1.4715404	0.21431662	0.28966415	1.4812932	-0.17063969	0.473577	1.3054584	0.0021064577	0.41833749	1.4209637	-0.10802114	0.35787622	0.49419678	0.094585648	0.34771982	0.51872394	0.18317807	0.44812228	0.67846582	0.16107854	0.30828708	0.10607253	0.10848607	0.28431247	0.10144392	0.1992294	0.31094778	0.37463733	0.21602179	0.20505217	0.061229015	0.1510787
4680	46.79	0.44191116	0.06450412	0.15094431	0.44786136	1.0300249	0.14815427	0.37295474	1.0274491	0.19012029	0.23359447	1.0170741	0.025336752	0.33331192	1.0292196	-0.15346956	0.42908051	1.0415068	-0.1254585	0.4094014	1.4579297	0.0090273476	0.30482684	1.4716697	0.21397894	0.29007877	1.4812307	-0.17094492	0.4736955	1.3052802	0.0020099332	0.41864618	1.4207643	-0.10822754	0.35763403	0.49419339	0.094551308	0.34747354	0.51873047	0.18314618	0.44790485	0.67845154	0.16106975	0.30826974	0.10606816	0.10849048	0.28428708	0.10143577	0.19923164	0.31076761	0.37463528	0.21600739	0.20503955	0.061214157	0.15107906
4681	46.8	0.44189661	0.064514793	0.15094885	0.44762283	1.0299976	0.1481825	0.37265732	1.0274644	0.19003026	0.2335282	1.0171851	0.025038174	0.33352402	1.0291641	-0.15363647	0.42932767	1.0414037	-0.12544644	0.4096644	1.4578143	0.0088192291	0.30493658	1.4718008	0.21364734	0.29050888	1.481184	-0.17125859	0.47383032	1.3051102	0.0019191715	0.41897662	1.4205804	-0.1084257	0.35737775	0.49418961	0.094530525	0.34721185	0.51873621	0.18312692	0.4476683	0.6784306	0.1610807	0.30825101	0.10606472	0.10849752	0.2842587	0.10142483	0.19923492	0.31057126	0.37463177	0.21600159	0.20502672	0.061198803	0.15108347
4682	46.81	0.44188171	0.064524925	0.15095546	0.44740039	1.0299613	0.14822409	0.37237585	1.0274812	0.18995723	0.23347029	1.017314	0.02477426	0.33372897	1.0291122	-0.15377881	0.42957581	1.0412869	-0.12541953	0.40994101	1.4577045	0.0086163759	0.30504605	1.4719324	0.21332098	0.29095892	1.4811541	-0.17157845	0.47397913	1.3049449	0.0018332596	0.41932663	1.4204092	-0.10861616	0.35711499	0.49418509	0.094522896	0.34694034	0.51874097	0.18312001	0.44741284	0.67840454	0.16111148	0.30823111	0.10606203	0.10850631	0.28422736	0.10141119	0.19923903	0.31036206	0.37462643	0.21600211	0.2050141	0.061181919	0.15109181
4683	46.82	0.44186618	0.064534637	0.15096423	0.44719507	1.0299169	0.14827739	0.37211325	1.0274994	0.18990286	0.23341757	1.0174569	0.024546001	0.33391849	1.029063	-0.153895	0.4298085	1.0411558	-0.12538183	0.4102327	1.4575973	0.0084166946	0.30515866	1.4720631	0.2129996	0.29143155	1.4811379	-0.17190138	0.47413989	1.3047821	0.0017521157	0.4196937	1.4202476	-0.10879936	0.35685156	0.49417981	0.094527863	0.34666348	0.51874463	0.18312477	0.44713925	0.67837384	0.16116132	0.30821051	0.10605974	0.10851615	0.28419382	0.10139568	0.19924463	0.31014426	0.37461923	0.21600716	0.20500185	0.061162678	0.15110338
4684	46.83	0.44184991	0.064544189	0.15097508	0.44700766	1.0298655	0.14833987	0.3718718	1.0275183	0.18986714	0.23336713	1.0176099	0.024353115	0.33408682	1.0290159	-0.1539845	0.43000687	1.0410084	-0.12533829	0.41053955	1.4574912	0.0082196255	0.30527905	1.4721909	0.21268379	0.29192743	1.4811298	-0.17222447	0.47431104	1.3046199	0.0016762551	0.42007571	1.4200919	-0.10897538	0.35659152	0.49417374	0.094544456	0.34638492	0.5187475	0.18314005	0.44684882	0.67833777	0.1612291	0.30818945	0.10605743	0.10852666	0.28415872	0.10137943	0.19925275	0.30992221	0.37461075	0.21601616	0.20498988	0.061140778	0.15111678
4685	46.84	0.44183276	0.064553986	0.15098744	0.44683838	1.0298092	0.14840813	0.37165277	1.027537	0.18984799	0.23331641	1.0177696	0.024194256	0.33422998	1.0289701	-0.15404802	0.43015048	1.0408423	-0.12529387	0.41086035	1.4573859	0.0080261621	0.3054119	1.4723162	0.21237488	0.29244565	1.4811222	-0.17254536	0.47449149	1.3044573	0.0016065477	0.42047049	1.419939	-0.1091436	0.35633774	0.49416623	0.094570969	0.34610785	0.51874969	0.18316429	0.44654413	0.67829529	0.16131339	0.30816785	0.10605474	0.10853779	0.28412305	0.10136341	0.19926398	0.30970065	0.3746015	0.2160296	0.20497806	0.061116604	0.15113029
4686	46.85	0.441815	0.064564499	0.15100049	0.44668704	1.02975	0.14847824	0.37145673	1.0275554	0.18984229	0.23326318	1.0179326	0.024066643	0.33434467	1.0289253	-0.15408774	0.4302189	1.0406544	-0.12525271	0.41119351	1.4572819	0.00783779	0.30556107	1.4724388	0.21207352	0.29298428	1.4811091	-0.1728614	0.47467966	1.3042942	0.001543913	0.42087579	1.4197865	-0.10930303	0.3560921	0.49415622	0.094604904	0.34583585	0.51875098	0.18319566	0.4462305	0.67824597	0.16141202	0.30814566	0.10605148	0.10854963	0.28408734	0.1013484	0.19927841	0.30948425	0.37459207	0.21604813	0.20496625	0.061090958	0.15114246
